<?xml version="1.0" encoding="utf-8"?>
<!-- Generator: Adobe Illustrator 19.2.0, SVG Export Plug-In . SVG Version: 6.00 Build 0)  -->
<svg version="1.1" xmlns="http://www.w3.org/2000/svg" xmlns:xlink="http://www.w3.org/1999/xlink" x="0px" y="0px"
	 viewBox="0 0 382.9 158.3" style="enable-background:new 0 0 382.9 158.3;" xml:space="preserve">
<style type="text/css">
	.st0{display:none;}
	.st1{display:inline;fill:#FF8000;}
	.st2{display:inline;}
	.st3{fill:#FF33AA;}
	.st4{fill:#FF8000;}
</style>
<g id="ff8000_background-DO_NOT_MOVE" class="st0">
	<rect x="-29.4" y="-22.5" class="st1" width="428" height="165.5"/>
</g>
<g id="CLEAR_SPACE" class="st0">
	<g class="st2">
		<path class="st3" d="M196.9,1.3c0-2.5-1.9-4.2-5.3-4.2c-3.4,0-5.6,2.3-5.6,5.6c0,2.5,1.9,4.2,5.3,4.2
			C194.7,6.9,196.9,4.5,196.9,1.3z"/>
		<path class="st3" d="M196.9-8.5c0-2.5-1.9-4.2-5.3-4.2c-3.4,0-5.6,2.3-5.6,5.6c0,2.5,1.9,4.2,5.3,4.2
			C194.7-2.9,196.9-5.3,196.9-8.5z"/>
		<path class="st3" d="M196.9-18.3c0-2.5-1.9-4.2-5.3-4.2c-3.4,0-5.6,2.3-5.6,5.6c0,2.5,1.9,4.2,5.3,4.2
			C194.7-12.7,196.9-15.1,196.9-18.3z"/>
	</g>
	<g class="st2">
		<path class="st3" d="M196.9,137.6c0-2.5-1.9-4.2-5.3-4.2c-3.4,0-5.6,2.3-5.6,5.6c0,2.5,1.9,4.2,5.3,4.2
			C194.7,143.3,196.9,140.9,196.9,137.6z"/>
		<path class="st3" d="M196.9,127.8c0-2.5-1.9-4.2-5.3-4.2c-3.4,0-5.6,2.3-5.6,5.6c0,2.5,1.9,4.2,5.3,4.2
			C194.7,133.5,196.9,131,196.9,127.8z"/>
		<path class="st3" d="M196.9,118c0-2.5-1.9-4.2-5.3-4.2c-3.4,0-5.6,2.3-5.6,5.6c0,2.5,1.9,4.2,5.3,4.2
			C194.7,123.6,196.9,121.2,196.9,118z"/>
	</g>
	<g class="st2">
		<path class="st3" d="M-23.8,71.2c2.5,0,4.2-1.9,4.2-5.3c0-3.4-2.3-5.6-5.6-5.6c-2.5,0-4.2,1.9-4.2,5.3C-29.4,69-27,71.2-23.8,71.2
			z"/>
		<path class="st3" d="M-14,71.2c2.5,0,4.2-1.9,4.2-5.3c0-3.4-2.3-5.6-5.6-5.6c-2.5,0-4.2,1.9-4.2,5.3C-19.6,69-17.2,71.2-14,71.2z"
			/>
		<path class="st3" d="M-4.2,71.2c2.5,0,4.2-1.9,4.2-5.3c0-3.4-2.3-5.6-5.6-5.6c-2.5,0-4.2,1.9-4.2,5.3C-9.8,69-7.4,71.2-4.2,71.2z"
			/>
	</g>
	<g class="st2">
		<path class="st3" d="M374.8,71.2c2.5,0,4.2-1.9,4.2-5.3c0-3.4-2.3-5.6-5.6-5.6c-2.5,0-4.2,1.9-4.2,5.3
			C369.2,69,371.6,71.2,374.8,71.2z"/>
		<path class="st3" d="M384.6,71.2c2.5,0,4.2-1.9,4.2-5.3c0-3.4-2.3-5.6-5.6-5.6c-2.5,0-4.2,1.9-4.2,5.3
			C379,69,381.4,71.2,384.6,71.2z"/>
		<path class="st3" d="M394.4,71.2c2.5,0,4.2-1.9,4.2-5.3c0-3.4-2.3-5.6-5.6-5.6c-2.5,0-4.2,1.9-4.2,5.3
			C388.8,69,391.2,71.2,394.4,71.2z"/>
	</g>
</g>
<g id="Layer_1">
	<path class="st4" d="M122,56.5c0,2.6-2.6,4.7-11.9,4.7c-1.4,0-3-0.1-4.8-0.2c2-4.6,6.2-8.1,11.2-8.1C120.2,53,122,54.8,122,56.5z
		 M220.3,54.1c-3.6,0-6.8,2.1-8.8,5.2l-1,4.8c-1,5.3,1.9,9.8,7.5,9.8c6.1,0,9.5-5.9,9.5-11.9C227.4,57.2,224.3,54.1,220.3,54.1z
		 M333.7,53c-5.1,0-9.3,3.5-11.2,8.1c1.8,0.1,3.4,0.2,4.8,0.2c9.3,0,11.9-2.1,11.9-4.7C339.2,54.8,337.4,53,333.7,53z M369,22.8
		v70.3c0,7.2-6.1,13.2-13.6,13.5L14,116c-7,0-14-7-14-14l0-88.1C0,7.1,7,0,14,0l341.5,9.3C362.9,9.6,369,15.7,369,22.8z M36.6,52
		L39,41.1h20.1c2.3,0,3.2-0.3,3.9-1.1c1.1-1.1,1.7-3.6,1.7-4.7c0-1.9-1.5-3-4.3-3H35.9c-3.4,0-5.6,1.6-6.3,5.2l-7.7,36.7
		c-1,4.3,0.9,6.4,5.1,6.4h24.2c2.2,0,3.2-0.3,3.9-1.1c1.1-1.2,1.6-3.6,1.6-4.7c0-1.9-1.4-2.9-4.3-2.9h-20l2.4-11.7h14.6
		c2.1,0,2.9-0.4,3.6-1.1c1-1.1,1.5-3.4,1.5-4.4c0-1.7-1.4-2.8-4-2.8H36.6z M94.6,51.5c0-4.5-6.6-4.9-6.7-4.7L74.4,70.5l-1.2-12.5
		c-0.3-4.6-1.2-7.6-3-9.5c-1.3-1.3-2.7-1.9-4.8-1.9c-4.3,0-5.5,4.3-5.3,4.3c2.7,0.2,3.6,2.2,4.3,7.5L67,77.5
		c0.3,2.7,2.9,3.6,5.3,3.6c1.9,0,4.5-0.4,6-2.9l14.1-21.7C94.1,54.2,94.6,53,94.6,51.5z M130.2,56.3c0-5.8-4.7-9.8-13.2-9.8
		c-11.7,0-21.1,8.7-21.1,20.8c0,8.2,5.2,14.3,16.2,14.3c5.8,0,9.7-1.5,12.3-4c1.3-1.4,1.8-2.3,1.8-4.1c0-3.2-4-3.8-4.1-3.6
		c-2.2,2.9-5.4,4.9-9.9,4.9c-5.3,0-8.2-2.9-8.2-7.5V67c2.5,0.1,4.8,0.3,6.9,0.3C125.8,67.2,130.2,63.1,130.2,56.3z M164.5,74.5
		c0-1.4,0.7-4,1.6-7.4c1.2-4.1,2-7.4,2-9.8c0-6.4-4-10.8-10.8-10.8c-4.9,0-8.8,2.5-11.5,6.5c0.1-4.5-2.6-6-5.3-6
		c-1.5,0-2.6,0.4-2.7,0.6l-6.1,28.8c-0.8,3.6,1.6,4.6,4.2,4.6h1c2.5,0,3.7-1.2,4.5-4.6l3.6-17c2.1-3.3,4.3-4.9,7.7-4.9
		c3.5,0,5.4,2.1,5.4,5.5c0,1.4-0.6,4-1.5,7.2c-1,3.8-1.6,6.3-1.6,8.2c0,3.6,2.1,6,6.7,6c5.3,0,6-4,5.8-4
		C165.3,77.2,164.5,76.4,164.5,74.5z M197.2,53.9c1-1,1.4-3.1,1.4-4c0-1.5-1.3-2.5-3.6-2.5h-5.6l1.6-7.7c0.1-0.3-1.5-1.2-3.6-1.2
		c-4.2,0-6.2,2.1-7.2,7l-0.4,1.9h-2c-1.9,0-2.7,0.3-3.4,1c-1,1-1.4,3.1-1.4,4c0,1.6,1.3,2.5,3.5,2.5h1.6L175.3,69
		c-1.7,8.1,1.8,12.7,9.5,12.7c3.2,0,5.6-0.8,7.1-2.3c1.1-1.1,1.6-2.3,1.6-3.8c0-2.1-1.3-3.2-1.6-2.9c-0.9,0.8-2.4,1.7-4.1,1.7
		c-2.7,0-4-1.7-3.2-5.8l2.9-13.7h6.2C195.7,54.8,196.5,54.5,197.2,53.9z M236.8,60.8c0-9.2-6-14.3-13.2-14.3
		c-4.6,0-8.2,2.1-10.6,5.6l3.1-14.9c0.8-3.6-1.6-4.7-4.1-4.7h-1.1c-2.5,0-3.7,1.2-4.5,4.7l-9,42.8c-0.1,0.3,1.5,1.2,3.4,1.2
		c3.8,0,5.9-1.6,7.2-6c2.1,4.1,6.4,6.5,11.3,6.5C229.9,81.6,236.8,71.4,236.8,60.8z M268.4,51.2c0-2.8-2.6-4.7-6-4.7
		c-3.9,0-7,2.4-9,6.4c0.1-4.4-2.6-5.9-5.3-5.9c-1.5,0-2.6,0.4-2.7,0.6l-6.1,28.8c-0.8,3.6,1.6,4.6,4.2,4.6h1c2.5,0,3.7-1.2,4.5-4.6
		l1.9-9.3c1.5-7.1,4.2-11.9,8.6-11.9c2.3,0,3.7,1,4.7,2C264.2,57.4,268.4,55.9,268.4,51.2z M278.7,47h-1c-2.5,0-3.7,1.2-4.5,4.7
		l-4.4,20.5c-1.2,5.4,0.4,9.3,6.7,9.3c5.1,0,5.7-3.4,5.6-3.4c-2.8-0.4-3.4-1.8-2.7-5.6l4.5-20.8C283.7,48,281.4,47,278.7,47z
		 M286.9,36.5c0-2.5-1.9-4.2-5.3-4.2c-3.4,0-5.6,2.3-5.6,5.6c0,2.5,1.9,4.2,5.3,4.2C284.6,42.2,286.9,39.8,286.9,36.5z M311.7,53.9
		c1-1,1.4-3.1,1.4-4c0-1.5-1.3-2.5-3.6-2.5h-5.6l1.6-7.7c0.1-0.3-1.5-1.2-3.6-1.2c-4.3,0-6.2,2.1-7.2,7l-0.4,1.9h-2
		c-1.9,0-2.7,0.3-3.4,1c-1,1-1.4,3.1-1.4,4c0,1.6,1.3,2.5,3.5,2.5h1.6L289.9,69c-1.7,8.1,1.8,12.7,9.5,12.7c3.2,0,5.6-0.8,7.1-2.3
		c1.1-1.1,1.6-2.3,1.6-3.8c0-2.1-1.3-3.2-1.6-2.9c-0.9,0.8-2.4,1.7-4.1,1.7c-2.7,0-4-1.7-3.2-5.8l2.9-13.7h6.2
		C310.3,54.8,311.1,54.5,311.7,53.9z M347.4,56.3c0-5.8-4.7-9.8-13.2-9.8c-11.7,0-21.1,8.7-21.1,20.8c0,8.2,5.2,14.3,16.2,14.3
		c5.8,0,9.7-1.5,12.3-4c1.3-1.4,1.9-2.3,1.9-4.1c0-3.2-4-3.8-4.1-3.6c-2.2,2.9-5.4,4.9-9.9,4.9c-5.3,0-8.2-2.9-8.2-7.5V67
		c2.5,0.1,4.8,0.3,6.9,0.3C343,67.2,347.4,63.1,347.4,56.3z M378.9,21.6c2.3,0,3.9-1.7,3.9-4c0-2.3-1.6-4-3.9-4
		c-2.3,0-3.9,1.7-3.9,4C375,19.9,376.6,21.6,378.9,21.6z M379,21c-1.9,0-3.3-1.5-3.3-3.5c0-2,1.3-3.4,3.3-3.4c1.9,0,3.3,1.5,3.3,3.5
		C382.2,19.6,380.9,21,379,21z M380.2,19.6c0.3,0,0.4-0.3,0.4-0.3l-1.2-1.3c0.8-0.1,1.2-0.5,1.2-1.2c0-0.9-0.6-1.3-1.6-1.3h-1.3
		c-0.2,0-0.4,0.2-0.4,0.4v3.4c0,0.2,0.1,0.4,0.3,0.4h0.1c0.2,0,0.3-0.1,0.3-0.3V18h0.5l1.1,1.3C379.9,19.5,380.1,19.6,380.2,19.6z
		 M378.1,16h0.9c0.6,0,0.9,0.2,0.9,0.7c0,0.4-0.3,0.7-0.9,0.7h-1V16z"/>
	<g>
		<path class="st4" d="M186.3,149.4v-20.6c0-0.8,0.6-1.4,1.4-1.4h13.9c0.7,0,1.1,0.4,1.1,1v0.2c0,0.7-0.4,1-1.1,1h-12.8v8H199
			c0.7,0,1.1,0.4,1.1,1v0.1c0,0.7-0.4,1-1.1,1h-10.3v8.6h13.1c0.7,0,1.1,0.3,1.1,1v0.2c0,0.7-0.4,1-1.1,1h-14.1
			C186.9,150.8,186.3,150.1,186.3,149.4z"/>
		<path class="st4" d="M209,136.3c1.2-1.8,3.2-3.1,5.8-3.1c4.5,0,6.8,3,6.8,7.6v9c0,0.9-0.4,1.1-1,1.1h-0.3c-0.6,0-1-0.3-1-1.1v-8.9
			c0-3.4-1.7-5.5-4.6-5.5c-2.7,0-4.6,1.5-5.7,3.6v10.8c0,0.9-0.4,1.1-1,1.1h-0.3c-0.6,0-1-0.3-1-1.1v-16.1c0-0.1,0.4-0.3,0.8-0.3
			c0.8,0,1.5,0.4,1.5,2.3V136.3z"/>
		<path class="st4" d="M223.9,153.7c0-2.6,2.4-4.3,5.5-4.9c-0.4-0.4-0.8-0.9-0.8-1.7c0-0.6,0.3-1.2,0.8-1.7
			c-2.6-0.9-4.3-3.1-4.3-5.7c0-3.6,3-6.5,6.9-6.5c1.6,0,3.1,0.5,4.3,1.3l1.2-1.9c0.5-0.7,0.9-1.1,1.7-1.1c1,0,1.4,1,1.3,1l-2.8,3.2
			c0.9,1,1.4,2.4,1.4,3.8c0,3.5-3,6.3-7.1,6.3c-0.3,0-0.6,0-0.9,0c-0.2,0.3-0.3,0.6-0.3,0.9c0,1.2,1.6,1.3,4.8,2.1
			c2.4,0.6,5,1.8,5,4.5c0,3.2-3.2,5.1-8.7,5.1C226.5,158.3,223.9,156.8,223.9,153.7z M232.4,150.1c-3.3,0.2-6.2,1.4-6.2,3.6
			c0,1.8,2,2.8,5.9,2.8c3.9,0,6.3-1.1,6.3-3.1C238.4,151.2,235.1,150.8,232.4,150.1z M236.7,139.6c0-2.6-1.9-4.5-4.7-4.5
			c-2.7,0-4.5,1.8-4.5,4.5c0,2.6,1.9,4.4,4.6,4.4C234.9,144,236.7,142.2,236.7,139.6z"/>
		<path class="st4" d="M243,127.8c0-1,0.5-1.5,1.6-1.5c1,0,1.5,0.5,1.5,1.5s-0.5,1.5-1.6,1.5C243.6,129.3,243,128.8,243,127.8z
			 M243.4,149.8v-15.2c0-0.9,0.4-1.1,1-1.1h0.3c0.6,0,1,0.3,1,1.1v15.2c0,0.9-0.4,1.1-1,1.1h-0.3
			C243.8,150.9,243.4,150.6,243.4,149.8z"/>
		<path class="st4" d="M253.1,136.3c1.2-1.8,3.2-3.1,5.8-3.1c4.5,0,6.8,3,6.8,7.6v9c0,0.9-0.4,1.1-1,1.1h-0.3c-0.6,0-1-0.3-1-1.1
			v-8.9c0-3.4-1.7-5.5-4.6-5.5c-2.7,0-4.6,1.5-5.7,3.6v10.8c0,0.9-0.4,1.1-1,1.1h-0.3c-0.6,0-1-0.3-1-1.1v-16.1
			c0-0.1,0.4-0.3,0.8-0.3c0.8,0,1.5,0.4,1.5,2.3V136.3z"/>
		<path class="st4" d="M269.2,142.3c0-5.2,3.7-9.1,8.6-9.1c4.8,0,8,3.4,8,8.6v0.2c0,0.6-0.3,0.8-1,0.8h-13.3
			c0.2,3.7,2.8,6.3,6.5,6.3c3.3,0,4.9-1.4,5.9-3.1c0.1-0.1,1.4,0.2,1.4,1.3c0,1.2-2.6,3.8-7.2,3.8
			C272.9,151.2,269.2,147.5,269.2,142.3z M271.6,140.8h11.7c-0.2-3.4-2.3-5.6-5.5-5.6C274.6,135.2,272.1,137.5,271.6,140.8z"/>
		<path class="st4" d="M288.3,142.3c0-5.2,3.7-9.1,8.6-9.1c4.8,0,8,3.4,8,8.6v0.2c0,0.6-0.3,0.8-1,0.8h-13.3
			c0.2,3.7,2.8,6.3,6.5,6.3c3.3,0,4.9-1.4,5.9-3.1c0.1-0.1,1.4,0.2,1.4,1.3c0,1.2-2.6,3.8-7.2,3.8
			C292,151.2,288.3,147.5,288.3,142.3z M290.7,140.8h11.7c-0.2-3.4-2.3-5.6-5.5-5.6C293.7,135.2,291.2,137.5,290.7,140.8z"/>
		<path class="st4" d="M310.9,136.8c0.7-2.3,2.2-3.6,4.5-3.6c1.6,0,2.5,0.6,2.5,1.8c0,0.9-0.6,1.3-0.6,1.2c-0.5-0.4-1.1-0.7-2.1-0.7
			c-3.1,0-4.2,3.2-4.2,7.6v6.7c0,0.9-0.4,1.1-1,1.1h-0.3c-0.6,0-1-0.3-1-1.1v-16.1c0-0.1,0.4-0.3,0.8-0.3c0.8,0,1.5,0.4,1.5,2.3
			V136.8z"/>
		<path class="st4" d="M320.6,127.8c0-1,0.5-1.5,1.6-1.5c1,0,1.5,0.5,1.5,1.5s-0.5,1.5-1.6,1.5C321.1,129.3,320.6,128.8,320.6,127.8
			z M320.9,149.8v-15.2c0-0.9,0.4-1.1,1-1.1h0.3c0.6,0,1,0.3,1,1.1v15.2c0,0.9-0.4,1.1-1,1.1H322
			C321.4,150.9,320.9,150.6,320.9,149.8z"/>
		<path class="st4" d="M330.6,136.3c1.2-1.8,3.2-3.1,5.8-3.1c4.5,0,6.8,3,6.8,7.6v9c0,0.9-0.4,1.1-1,1.1h-0.3c-0.6,0-1-0.3-1-1.1
			v-8.9c0-3.4-1.7-5.5-4.6-5.5c-2.7,0-4.6,1.5-5.7,3.6v10.8c0,0.9-0.4,1.1-1,1.1h-0.3c-0.6,0-1-0.3-1-1.1v-16.1
			c0-0.1,0.4-0.3,0.8-0.3c0.8,0,1.5,0.4,1.5,2.3V136.3z"/>
		<path class="st4" d="M345.5,153.7c0-2.6,2.4-4.3,5.5-4.9c-0.4-0.4-0.8-0.9-0.8-1.7c0-0.6,0.3-1.2,0.8-1.7
			c-2.6-0.9-4.3-3.1-4.3-5.7c0-3.6,3-6.5,6.9-6.5c1.6,0,3.1,0.5,4.3,1.3l1.2-1.9c0.5-0.7,0.9-1.1,1.7-1.1c1,0,1.4,1,1.3,1l-2.8,3.2
			c0.9,1,1.4,2.4,1.4,3.8c0,3.5-3,6.3-7.1,6.3c-0.3,0-0.6,0-0.9,0c-0.2,0.3-0.3,0.6-0.3,0.9c0,1.2,1.6,1.3,4.8,2.1
			c2.4,0.6,5,1.8,5,4.5c0,3.2-3.2,5.1-8.7,5.1C348.1,158.3,345.5,156.8,345.5,153.7z M354,150.1c-3.3,0.2-6.2,1.4-6.2,3.6
			c0,1.8,2,2.8,5.9,2.8c3.9,0,6.3-1.1,6.3-3.1C360,151.2,356.8,150.8,354,150.1z M358.4,139.6c0-2.6-1.9-4.5-4.7-4.5
			c-2.7,0-4.5,1.8-4.5,4.5c0,2.6,1.9,4.4,4.6,4.4C356.5,144,358.4,142.2,358.4,139.6z"/>
	</g>
</g>
</svg>
