<?xml version="1.0" encoding="utf-8"?>
<!-- Generator: Adobe Illustrator 19.1.0, SVG Export Plug-In . SVG Version: 6.00 Build 0)  -->
<svg version="1.1" id="Layer_1" xmlns="http://www.w3.org/2000/svg" xmlns:xlink="http://www.w3.org/1999/xlink" x="0px" y="0px"
	 viewBox="0 0 360 252" style="enable-background:new 0 0 360 252;" xml:space="preserve">
<style type="text/css">
	.st0{fill:#009DDC;}
	.st1{fill:#FFFFFF;}
	.st2{fill-rule:evenodd;clip-rule:evenodd;fill:#FFFFFF;}
</style>
<g>
	<g>
		<path class="st0" d="M149.8,27.5c11.6-12.1,27.8-19.6,45.7-19.6c23.8,0,44.5,13.3,55.5,32.9c9.6-4.3,20.2-6.7,31.4-6.7
			c42.9,0,77.6,35.1,77.6,78.3s-34.7,78.3-77.6,78.3c-5.2,0-10.3-0.5-15.3-1.5c-9.7,17.3-28.3,29.1-49.5,29.1
			c-8.9,0-17.3-2.1-24.8-5.7c-9.9,23.2-32.8,39.4-59.6,39.4c-27.9,0-51.6-17.6-60.7-42.4c-4,0.8-8.1,1.3-12.4,1.3
			C26.9,210.9,0,183.7,0,150.2c0-22.5,12.1-42.1,30-52.6c-3.7-8.5-5.8-17.9-5.8-27.8C24.3,31.3,55.6,0,94.2,0
			C116.9,0,137,10.8,149.8,27.5z"/>
	</g>
	<g>
		<g>
			<path class="st1" d="M52.1,130.7c-0.2,0.6,0.1,0.7,0.2,0.8c0.7,0.5,1.4,0.8,2.1,1.2c3.7,1.9,7.1,2.5,10.8,2.5
				c7.4,0,12-3.9,12-10.2v-0.1c0-5.8-5.2-8-10-9.5l-0.6-0.2c-3.7-1.2-6.8-2.2-6.8-4.6v-0.1c0-2.1,1.8-3.6,4.7-3.6
				c3.2,0,7,1.1,9.4,2.4c0,0,0.7,0.5,1-0.2c0.1-0.4,1.4-3.7,1.5-4c0.1-0.4-0.1-0.7-0.4-0.8c-2.8-1.7-6.6-2.8-10.6-2.8l-0.7,0
				c-6.8,0-11.5,4.1-11.5,9.9v0.1c0,6.2,5.2,8.2,10.1,9.6l0.8,0.2c3.6,1.1,6.6,2,6.6,4.5v0.1c0,2.3-2,4-5.2,4c-1.2,0-5.2,0-9.5-2.7
				c-0.5-0.3-0.8-0.5-1.2-0.8c-0.2-0.1-0.7-0.4-1,0.3L52.1,130.7z"/>
			<path class="st1" d="M160.2,130.7c-0.2,0.6,0.1,0.7,0.2,0.8c0.7,0.5,1.4,0.8,2.1,1.2c3.7,1.9,7.1,2.5,10.8,2.5
				c7.4,0,12-3.9,12-10.2v-0.1c0-5.8-5.2-8-10-9.5l-0.6-0.2c-3.7-1.2-6.8-2.2-6.8-4.6v-0.1c0-2.1,1.8-3.6,4.7-3.6
				c3.2,0,7,1.1,9.4,2.4c0,0,0.7,0.5,1-0.2c0.1-0.4,1.4-3.7,1.5-4c0.1-0.4-0.1-0.7-0.4-0.8c-2.8-1.7-6.6-2.8-10.6-2.8l-0.7,0
				c-6.8,0-11.5,4.1-11.5,9.9v0.1c0,6.2,5.2,8.2,10.1,9.6l0.8,0.2c3.6,1.1,6.6,2,6.6,4.5v0.1c0,2.3-2,4-5.2,4c-1.2,0-5.2,0-9.5-2.7
				c-0.5-0.3-0.8-0.5-1.2-0.8c-0.1-0.1-0.8-0.3-1,0.3L160.2,130.7z"/>
			<path class="st1" d="M240.2,111.7c-0.6-2-1.6-3.9-2.8-5.4c-1.3-1.5-2.9-2.7-4.7-3.6c-1.9-0.9-4.1-1.3-6.6-1.3
				c-2.5,0-4.7,0.4-6.6,1.3c-1.9,0.9-3.5,2.1-4.7,3.6c-1.3,1.5-2.2,3.3-2.8,5.4c-0.6,2-0.9,4.3-0.9,6.6c0,2.4,0.3,4.6,0.9,6.6
				c0.6,2,1.5,3.8,2.8,5.4c1.3,1.5,2.9,2.7,4.7,3.6c1.9,0.9,4.1,1.3,6.6,1.3c2.5,0,4.7-0.4,6.6-1.3c1.9-0.9,3.5-2.1,4.7-3.6
				c1.3-1.5,2.2-3.3,2.8-5.4c0.6-2,0.9-4.3,0.9-6.6C241.1,115.9,240.8,113.7,240.2,111.7 M234.1,118.3c0,3.6-0.7,6.4-2,8.4
				c-1.3,2-3.3,2.9-6,2.9c-2.7,0-4.7-1-6-2.9c-1.3-2-1.9-4.8-1.9-8.4c0-3.6,0.7-6.4,1.9-8.3c1.3-2,3.2-2.9,6-2.9
				c2.7,0,4.7,0.9,6,2.9C233.4,111.9,234.1,114.7,234.1,118.3"/>
			<path class="st2" d="M290.8,128.6c-0.2-0.6-0.8-0.4-0.8-0.4c-0.9,0.3-1.8,0.7-2.9,0.8c-1,0.2-2.2,0.2-3.4,0.2c-3,0-5.4-0.9-7-2.6
				c-1.7-1.8-2.7-4.6-2.6-8.4c0-3.5,0.9-6.1,2.4-8.1c1.5-2,3.8-3,6.8-3c2.5,0,4.5,0.3,6.5,0.9c0,0,0.5,0.2,0.7-0.4
				c0.5-1.5,0.9-2.6,1.5-4.2c0.2-0.5-0.2-0.7-0.4-0.7c-0.8-0.3-2.7-0.8-4.1-1c-1.3-0.2-2.9-0.3-4.6-0.3c-2.6,0-4.9,0.4-6.9,1.3
				c-2,0.9-3.6,2.1-5,3.6c-1.3,1.5-2.3,3.3-3,5.4c-0.7,2-1,4.3-1,6.6c0,5.1,1.4,9.2,4.1,12.3c2.7,3,6.8,4.6,12.2,4.6
				c3.2,0,6.4-0.6,8.7-1.6c0,0,0.4-0.2,0.3-0.7L290.8,128.6z"/>
			<path class="st2" d="M322.4,110.5c-0.5-2-1.8-4-2.7-4.9c-1.3-1.4-2.7-2.5-4-3c-1.7-0.7-3.7-1.2-6-1.2c-2.6,0-5,0.4-6.9,1.3
				c-1.9,0.9-3.5,2.1-4.8,3.7c-1.3,1.5-2.2,3.4-2.8,5.4c-0.6,2.1-0.9,4.3-0.9,6.7c0,2.4,0.3,4.6,0.9,6.7c0.6,2,1.7,3.8,3,5.3
				c1.4,1.5,3.1,2.7,5.2,3.5c2.1,0.8,4.6,1.2,7.6,1.2c6,0,9.2-1.4,10.5-2.1c0.2-0.1,0.4-0.4,0.2-1l-1.4-3.8
				c-0.2-0.6-0.8-0.4-0.8-0.4c-1.5,0.6-3.6,1.6-8.6,1.5c-3.2,0-5.6-1-7.1-2.5c-1.5-1.5-2.3-3.8-2.4-6.9l20.9,0c0,0,0.5,0,0.6-0.5
				C323,119.3,323.7,115.2,322.4,110.5z M301.6,114.9c0.3-2,0.8-3.6,1.7-4.9c1.3-2,3.2-3,6-3s4.5,1.1,5.8,3c0.9,1.3,1.2,3,1.4,4.9
				L301.6,114.9z"/>
			<path class="st2" d="M155.3,110.5c-0.5-2-1.8-4-2.7-4.9c-1.3-1.4-2.7-2.5-4-3c-1.7-0.7-3.7-1.2-6-1.2c-2.6,0-5,0.4-6.9,1.3
				c-1.9,0.9-3.5,2.1-4.8,3.7c-1.3,1.5-2.2,3.4-2.8,5.4c-0.6,2.1-0.9,4.3-0.9,6.7c0,2.4,0.3,4.6,0.9,6.7c0.6,2,1.7,3.8,3,5.3
				c1.4,1.5,3.1,2.7,5.2,3.5c2.1,0.8,4.6,1.2,7.6,1.2c6,0,9.2-1.4,10.5-2.1c0.2-0.1,0.4-0.4,0.2-1l-1.4-3.8
				c-0.2-0.6-0.8-0.4-0.8-0.4c-1.5,0.6-3.6,1.6-8.6,1.5c-3.2,0-5.6-1-7.1-2.5c-1.5-1.5-2.3-3.8-2.4-6.9l20.9,0c0,0,0.5,0,0.6-0.5
				C155.9,119.3,156.6,115.2,155.3,110.5z M134.5,114.9c0.3-2,0.8-3.6,1.7-4.9c1.3-2,3.2-3,6-3c2.7,0,4.5,1.1,5.8,3
				c0.9,1.3,1.2,3,1.4,4.9L134.5,114.9z"/>
			<path class="st1" d="M97.7,113.9c-0.8-0.1-1.9-0.1-3.3-0.1c-1.8,0-3.5,0.2-5.1,0.7c-1.6,0.4-3.1,1.1-4.4,2
				c-1.3,0.9-2.3,2.1-3,3.4c-0.7,1.4-1.1,3-1.1,4.8c0,1.8,0.3,3.5,1,4.8c0.6,1.3,1.6,2.4,2.7,3.3c1.2,0.8,2.6,1.5,4.3,1.8
				c1.6,0.4,3.5,0.6,5.5,0.6c2.1,0,4.3-0.2,6.3-0.5c2-0.3,4.6-0.9,5.3-1c0.7-0.2,1.5-0.4,1.5-0.4c0.5-0.1,0.5-0.7,0.5-0.7l0-19.1
				c0-4.2-1.1-7.3-3.3-9.2c-2.2-1.9-5.4-2.9-9.6-2.9c-1.6,0-4.1,0.2-5.6,0.5c0,0-4.6,0.9-6.4,2.4c0,0-0.4,0.3-0.2,0.8l1.5,4
				c0.2,0.5,0.7,0.3,0.7,0.3s0.2-0.1,0.3-0.2c4-2.2,9.1-2.1,9.1-2.1c2.3,0,4,0.5,5.2,1.3c1.1,0.9,1.7,2.2,1.7,5v0.9
				C99.4,114,97.7,113.9,97.7,113.9z M89.4,128.5c-0.8-0.7-0.9-0.8-1.2-1.2c-0.4-0.6-0.6-1.6-0.6-2.7c0-1.8,0.6-3.2,1.9-4
				c0,0,1.8-1.6,6.1-1.5c3,0,5.7,0.5,5.7,0.5v9.5h0c0,0-2.7,0.6-5.6,0.7C91.3,130,89.4,128.5,89.4,128.5z"/>
			<path class="st2" d="M266,103.1c0.2-0.5-0.2-0.7-0.3-0.8c-0.4-0.1-2.1-0.5-3.5-0.6c-2.6-0.2-4.1,0.3-5.4,0.9
				c-1.3,0.6-2.7,1.5-3.5,2.6l0-2.5c0-0.3-0.2-0.6-0.6-0.6h-5.3c-0.3,0-0.6,0.3-0.6,0.6v31.1c0,0.3,0.3,0.6,0.6,0.6h5.5
				c0.3,0,0.6-0.3,0.6-0.6v-15.6c0-2.1,0.2-4.2,0.7-5.5c0.5-1.3,1.1-2.3,1.8-3.1c0.8-0.7,1.6-1.3,2.6-1.5c1-0.3,2-0.4,2.8-0.4
				c1.1,0,2.3,0.3,2.3,0.3c0.4,0,0.6-0.2,0.8-0.6C264.8,106.5,265.8,103.7,266,103.1z"/>
			<path class="st2" d="M214.5,88.7c-0.7-0.2-1.3-0.3-2.1-0.5c-0.8-0.1-1.8-0.2-2.8-0.2c-3.8,0-6.7,1.1-8.8,3.2
				c-2.1,2.1-3.5,5.3-4.2,9.5l-0.3,1.4h-4.7c0,0-0.6,0-0.7,0.6l-0.8,4.3c-0.1,0.4,0.1,0.7,0.7,0.7h4.6l-4.7,26.1
				c-0.4,2.1-0.8,3.8-1.2,5.1c-0.5,1.3-0.9,2.3-1.5,3c-0.5,0.7-1,1.2-1.9,1.5c-0.7,0.2-1.5,0.4-2.5,0.4c-0.5,0-1.2-0.1-1.7-0.2
				c-0.5-0.1-0.8-0.2-1.1-0.4c0,0-0.5-0.2-0.8,0.3c-0.2,0.4-1.4,3.8-1.5,4.2c-0.1,0.4,0.1,0.7,0.3,0.8c0.6,0.2,1.1,0.4,1.9,0.6
				c1.2,0.3,2.1,0.3,3.1,0.3c1.9,0,3.7-0.3,5.1-0.8c1.5-0.5,2.7-1.4,3.9-2.7c1.2-1.3,2-2.7,2.7-4.7c0.7-1.9,1.3-4.3,1.8-7l4.7-26.6
				h6.9c0,0,0.6,0,0.7-0.6l0.8-4.3c0.1-0.4-0.1-0.7-0.7-0.7h-6.7c0-0.2,0.3-2.5,1.1-4.7c0.3-0.9,0.9-1.7,1.5-2.2
				c0.5-0.5,1.1-0.9,1.7-1.1c0.7-0.2,1.4-0.3,2.2-0.3c0.6,0,1.2,0.1,1.7,0.2c0.6,0.1,0.9,0.2,1.1,0.3c0.7,0.2,0.8,0,0.9-0.3l1.6-4.4
				C215.1,88.9,214.7,88.7,214.5,88.7z"/>
			<path class="st2" d="M121.3,133.8c0,0.3-0.2,0.6-0.6,0.6h-5.5c-0.3,0-0.6-0.3-0.6-0.6V89.3c0-0.3,0.2-0.6,0.6-0.6h5.5
				c0.3,0,0.6,0.3,0.6,0.6V133.8z"/>
		</g>
	</g>
</g>
</svg>
